G04 Layer: BottomLayer*
G04 EasyEDA v6.4.19.3, 2021-03-31T18:03:01+05:30*
G04 c08650e857294e3dbb17a6b3c2855350,e0f298e70ebc440d83774b4d482b81cc,10*
G04 Gerber Generator version 0.2*
G04 Scale: 100 percent, Rotated: No, Reflected: No *
G04 Dimensions in inches *
G04 leading zeros omitted , absolute positions ,3 integer and 6 decimal *
%FSLAX36Y36*%
%MOIN*%

%ADD11C,0.0500*%
%ADD13C,0.0709*%
%ADD14R,0.0945X0.0945*%
%ADD15C,0.0945*%
%ADD17C,0.0600*%
%ADD18R,0.0669X0.0669*%
%ADD19C,0.0669*%
%ADD20R,0.0700X0.0700*%
%ADD21C,0.0700*%

%LPD*%
G36*
X289700Y1781759D02*
G01*
X288160Y1782060D01*
X286860Y1782920D01*
X286000Y1784220D01*
X285700Y1785760D01*
X285700Y2246880D01*
X286020Y2248480D01*
X286980Y2249820D01*
X288380Y2250660D01*
X290020Y2250860D01*
X291580Y2250400D01*
X292840Y2249340D01*
X293220Y2248860D01*
X297500Y2244600D01*
X302260Y2240860D01*
X307420Y2237740D01*
X312940Y2235240D01*
X318720Y2233440D01*
X324680Y2232360D01*
X330700Y2232000D01*
X336740Y2232360D01*
X342700Y2233440D01*
X348480Y2235240D01*
X353980Y2237740D01*
X359159Y2240860D01*
X363920Y2244600D01*
X368200Y2248860D01*
X371940Y2253640D01*
X375060Y2258800D01*
X377540Y2264320D01*
X379340Y2270100D01*
X380439Y2276040D01*
X380800Y2282080D01*
X380439Y2288120D01*
X379340Y2294080D01*
X377540Y2299860D01*
X375060Y2305360D01*
X371940Y2310540D01*
X368200Y2315300D01*
X363920Y2319580D01*
X359159Y2323320D01*
X353980Y2326440D01*
X348480Y2328920D01*
X342700Y2330720D01*
X336740Y2331820D01*
X330700Y2332180D01*
X324680Y2331820D01*
X318720Y2330720D01*
X312940Y2328920D01*
X307420Y2326440D01*
X302260Y2323320D01*
X297500Y2319580D01*
X293220Y2315300D01*
X292840Y2314820D01*
X291580Y2313780D01*
X290020Y2313300D01*
X288380Y2313520D01*
X286980Y2314360D01*
X286020Y2315680D01*
X285700Y2317300D01*
X285700Y3157700D01*
X286020Y3159320D01*
X286980Y3160640D01*
X288380Y3161480D01*
X290020Y3161700D01*
X291580Y3161240D01*
X292840Y3160179D01*
X293220Y3159700D01*
X297500Y3155419D01*
X302260Y3151680D01*
X307420Y3148560D01*
X312940Y3146080D01*
X318720Y3144280D01*
X324680Y3143180D01*
X330700Y3142820D01*
X336740Y3143180D01*
X342700Y3144280D01*
X348480Y3146080D01*
X353980Y3148560D01*
X359159Y3151680D01*
X363920Y3155419D01*
X368200Y3159700D01*
X371940Y3164460D01*
X375060Y3169640D01*
X377540Y3175160D01*
X379340Y3180920D01*
X380439Y3186880D01*
X380800Y3192919D01*
X380439Y3198960D01*
X379340Y3204900D01*
X377540Y3210680D01*
X375060Y3216200D01*
X371940Y3221380D01*
X368200Y3226139D01*
X363920Y3230400D01*
X359159Y3234140D01*
X353980Y3237260D01*
X348480Y3239760D01*
X342700Y3241560D01*
X336740Y3242640D01*
X330700Y3243000D01*
X324680Y3242640D01*
X318720Y3241560D01*
X312940Y3239760D01*
X307420Y3237260D01*
X302260Y3234140D01*
X297500Y3230400D01*
X293220Y3226139D01*
X292840Y3225659D01*
X291580Y3224600D01*
X290020Y3224140D01*
X288380Y3224340D01*
X286980Y3225179D01*
X286020Y3226520D01*
X285700Y3228120D01*
X285700Y3607940D01*
X286000Y3609480D01*
X286860Y3610779D01*
X288160Y3611640D01*
X289700Y3611940D01*
X2308740Y3611940D01*
X2310260Y3611640D01*
X2311560Y3610779D01*
X2312440Y3609480D01*
X2312740Y3607940D01*
X2312740Y1785760D01*
X2312440Y1784220D01*
X2311560Y1782920D01*
X2310260Y1782060D01*
X2308740Y1781759D01*
G37*

%LPC*%
G36*
X1820480Y1939160D02*
G01*
X1826120Y1939520D01*
X1831680Y1940580D01*
X1837080Y1942320D01*
X1842200Y1944740D01*
X1846980Y1947780D01*
X1851339Y1951380D01*
X1855220Y1955520D01*
X1858540Y1960100D01*
X1861279Y1965060D01*
X1863360Y1970320D01*
X1864760Y1975800D01*
X1865480Y1981420D01*
X1865480Y1987080D01*
X1864760Y1992700D01*
X1863360Y1998180D01*
X1861279Y2003460D01*
X1858540Y2008420D01*
X1855220Y2013000D01*
X1851339Y2017120D01*
X1846980Y2020740D01*
X1842200Y2023760D01*
X1837080Y2026180D01*
X1831680Y2027920D01*
X1826120Y2028980D01*
X1820480Y2029340D01*
X1814820Y2028980D01*
X1809259Y2027920D01*
X1803880Y2026180D01*
X1798740Y2023760D01*
X1793959Y2020740D01*
X1789600Y2017120D01*
X1785720Y2013000D01*
X1782400Y2008420D01*
X1779680Y2003460D01*
X1777580Y1998180D01*
X1776180Y1992700D01*
X1775460Y1987080D01*
X1775460Y1981420D01*
X1776180Y1975800D01*
X1777580Y1970320D01*
X1779680Y1965060D01*
X1782400Y1960100D01*
X1785720Y1955520D01*
X1789600Y1951380D01*
X1793959Y1947780D01*
X1798740Y1944740D01*
X1803880Y1942320D01*
X1809259Y1940580D01*
X1814820Y1939520D01*
G37*
G36*
X1220480Y1939160D02*
G01*
X1226120Y1939520D01*
X1231680Y1940580D01*
X1237080Y1942320D01*
X1242200Y1944740D01*
X1246980Y1947780D01*
X1251340Y1951380D01*
X1255220Y1955520D01*
X1258540Y1960100D01*
X1261280Y1965060D01*
X1263360Y1970320D01*
X1264760Y1975800D01*
X1265480Y1981420D01*
X1265480Y1987080D01*
X1264760Y1992700D01*
X1263360Y1998180D01*
X1261280Y2003460D01*
X1258540Y2008420D01*
X1255220Y2013000D01*
X1251340Y2017120D01*
X1246980Y2020740D01*
X1242200Y2023760D01*
X1237080Y2026180D01*
X1231680Y2027920D01*
X1226120Y2028980D01*
X1220480Y2029340D01*
X1214820Y2028980D01*
X1209260Y2027920D01*
X1203880Y2026180D01*
X1198740Y2023760D01*
X1193960Y2020740D01*
X1189600Y2017120D01*
X1185720Y2013000D01*
X1182400Y2008420D01*
X1179680Y2003460D01*
X1177580Y1998180D01*
X1176180Y1992700D01*
X1175460Y1987080D01*
X1175460Y1981420D01*
X1176180Y1975800D01*
X1177580Y1970320D01*
X1179680Y1965060D01*
X1182400Y1960100D01*
X1185720Y1955520D01*
X1189600Y1951380D01*
X1193960Y1947780D01*
X1198740Y1944740D01*
X1203880Y1942320D01*
X1209260Y1940580D01*
X1214820Y1939520D01*
G37*
G36*
X1220480Y2039160D02*
G01*
X1226120Y2039520D01*
X1231680Y2040580D01*
X1237080Y2042320D01*
X1242200Y2044740D01*
X1246980Y2047780D01*
X1251340Y2051380D01*
X1255220Y2055520D01*
X1258540Y2060100D01*
X1261280Y2065060D01*
X1263360Y2070320D01*
X1264760Y2075800D01*
X1265480Y2081420D01*
X1265480Y2087080D01*
X1264760Y2092700D01*
X1263360Y2098180D01*
X1261280Y2103460D01*
X1258540Y2108420D01*
X1255220Y2113000D01*
X1251340Y2117120D01*
X1246980Y2120740D01*
X1242200Y2123760D01*
X1237080Y2126180D01*
X1231680Y2127920D01*
X1226120Y2128980D01*
X1220480Y2129340D01*
X1214820Y2128980D01*
X1209260Y2127920D01*
X1203880Y2126180D01*
X1198740Y2123760D01*
X1193960Y2120740D01*
X1189600Y2117120D01*
X1185720Y2113000D01*
X1182400Y2108420D01*
X1179680Y2103460D01*
X1177580Y2098180D01*
X1176180Y2092700D01*
X1175460Y2087080D01*
X1175460Y2081420D01*
X1176180Y2075800D01*
X1177580Y2070320D01*
X1179680Y2065060D01*
X1182400Y2060100D01*
X1185720Y2055520D01*
X1189600Y2051380D01*
X1193960Y2047780D01*
X1198740Y2044740D01*
X1203880Y2042320D01*
X1209260Y2040580D01*
X1214820Y2039520D01*
G37*
G36*
X1820480Y2039160D02*
G01*
X1826120Y2039520D01*
X1831680Y2040580D01*
X1837080Y2042320D01*
X1842200Y2044740D01*
X1846980Y2047780D01*
X1851339Y2051380D01*
X1855220Y2055520D01*
X1858540Y2060100D01*
X1861279Y2065060D01*
X1863360Y2070320D01*
X1864760Y2075800D01*
X1865480Y2081420D01*
X1865480Y2087080D01*
X1864760Y2092700D01*
X1863360Y2098180D01*
X1861279Y2103460D01*
X1858540Y2108420D01*
X1855220Y2113000D01*
X1851339Y2117120D01*
X1846980Y2120740D01*
X1842200Y2123760D01*
X1837080Y2126180D01*
X1831680Y2127920D01*
X1826120Y2128980D01*
X1820480Y2129340D01*
X1814820Y2128980D01*
X1809259Y2127920D01*
X1803880Y2126180D01*
X1798740Y2123760D01*
X1793959Y2120740D01*
X1789600Y2117120D01*
X1785720Y2113000D01*
X1782400Y2108420D01*
X1779680Y2103460D01*
X1777580Y2098180D01*
X1776180Y2092700D01*
X1775460Y2087080D01*
X1775460Y2081420D01*
X1776180Y2075800D01*
X1777580Y2070320D01*
X1779680Y2065060D01*
X1782400Y2060100D01*
X1785720Y2055520D01*
X1789600Y2051380D01*
X1793959Y2047780D01*
X1798740Y2044740D01*
X1803880Y2042320D01*
X1809259Y2040580D01*
X1814820Y2039520D01*
G37*
G36*
X840100Y2070140D02*
G01*
X841919Y2070140D01*
X847280Y2070480D01*
X852420Y2071519D01*
X857380Y2073200D01*
X862099Y2075520D01*
X866460Y2078440D01*
X870400Y2081879D01*
X873860Y2085840D01*
X876760Y2090200D01*
X878020Y2092740D01*
X840100Y2092740D01*
G37*
G36*
X764380Y2070140D02*
G01*
X766200Y2070140D01*
X766200Y2092740D01*
X728280Y2092740D01*
X729539Y2090200D01*
X732440Y2085840D01*
X735900Y2081879D01*
X739840Y2078440D01*
X744200Y2075520D01*
X748920Y2073200D01*
X753880Y2071519D01*
X759020Y2070480D01*
G37*
G36*
X840100Y2127740D02*
G01*
X878020Y2127740D01*
X876760Y2130280D01*
X873860Y2134640D01*
X870400Y2138580D01*
X866460Y2142040D01*
X862099Y2144960D01*
X857380Y2147280D01*
X852420Y2148960D01*
X847280Y2149980D01*
X841919Y2150340D01*
X840100Y2150340D01*
G37*
G36*
X728280Y2127740D02*
G01*
X766200Y2127740D01*
X766200Y2150340D01*
X764380Y2150340D01*
X759020Y2149980D01*
X753880Y2148960D01*
X748920Y2147280D01*
X744200Y2144960D01*
X739840Y2142040D01*
X735900Y2138580D01*
X732440Y2134640D01*
X729539Y2130280D01*
G37*
G36*
X2078740Y2133220D02*
G01*
X2084319Y2133580D01*
X2089780Y2134640D01*
X2095080Y2136400D01*
X2100120Y2138820D01*
X2104800Y2141860D01*
X2109040Y2145480D01*
X2112800Y2149620D01*
X2115980Y2154200D01*
X2118560Y2159140D01*
X2120500Y2164380D01*
X2121740Y2169820D01*
X2122280Y2175380D01*
X2122100Y2180960D01*
X2121200Y2186460D01*
X2119620Y2191820D01*
X2117360Y2196920D01*
X2114460Y2201700D01*
X2110980Y2206060D01*
X2106980Y2209940D01*
X2102500Y2213280D01*
X2097640Y2216020D01*
X2092460Y2218120D01*
X2087060Y2219520D01*
X2081540Y2220240D01*
X2075960Y2220240D01*
X2070420Y2219520D01*
X2065020Y2218120D01*
X2059840Y2216020D01*
X2054980Y2213280D01*
X2050500Y2209940D01*
X2046500Y2206060D01*
X2043020Y2201700D01*
X2040120Y2196920D01*
X2037860Y2191820D01*
X2036279Y2186460D01*
X2035380Y2180960D01*
X2035200Y2175380D01*
X2035740Y2169820D01*
X2036980Y2164380D01*
X2038920Y2159140D01*
X2041500Y2154200D01*
X2044680Y2149620D01*
X2048440Y2145480D01*
X2052680Y2141860D01*
X2057360Y2138820D01*
X2062400Y2136400D01*
X2067700Y2134640D01*
X2073180Y2133580D01*
G37*
G36*
X1820480Y2139160D02*
G01*
X1826120Y2139520D01*
X1831680Y2140580D01*
X1837080Y2142320D01*
X1842200Y2144740D01*
X1846980Y2147780D01*
X1851339Y2151380D01*
X1855220Y2155520D01*
X1858540Y2160100D01*
X1861279Y2165060D01*
X1863360Y2170320D01*
X1864760Y2175800D01*
X1865480Y2181420D01*
X1865480Y2187080D01*
X1864760Y2192700D01*
X1863360Y2198180D01*
X1861279Y2203460D01*
X1858540Y2208420D01*
X1855220Y2213000D01*
X1851339Y2217120D01*
X1846980Y2220740D01*
X1842200Y2223760D01*
X1837080Y2226180D01*
X1831680Y2227920D01*
X1826120Y2228980D01*
X1820480Y2229340D01*
X1814820Y2228980D01*
X1809259Y2227920D01*
X1803880Y2226180D01*
X1798740Y2223760D01*
X1793959Y2220740D01*
X1789600Y2217120D01*
X1785720Y2213000D01*
X1782400Y2208420D01*
X1779680Y2203460D01*
X1777580Y2198180D01*
X1776180Y2192700D01*
X1775460Y2187080D01*
X1775460Y2181420D01*
X1776180Y2175800D01*
X1777580Y2170320D01*
X1779680Y2165060D01*
X1782400Y2160100D01*
X1785720Y2155520D01*
X1789600Y2151380D01*
X1793959Y2147780D01*
X1798740Y2144740D01*
X1803880Y2142320D01*
X1809259Y2140580D01*
X1814820Y2139520D01*
G37*
G36*
X1220480Y2139160D02*
G01*
X1226120Y2139520D01*
X1231680Y2140580D01*
X1237080Y2142320D01*
X1242200Y2144740D01*
X1246980Y2147780D01*
X1251340Y2151380D01*
X1255220Y2155520D01*
X1258540Y2160100D01*
X1261280Y2165060D01*
X1263360Y2170320D01*
X1264760Y2175800D01*
X1265480Y2181420D01*
X1265480Y2187080D01*
X1264760Y2192700D01*
X1263360Y2198180D01*
X1261280Y2203460D01*
X1258540Y2208420D01*
X1255220Y2213000D01*
X1251340Y2217120D01*
X1246980Y2220740D01*
X1242200Y2223760D01*
X1237080Y2226180D01*
X1231680Y2227920D01*
X1226120Y2228980D01*
X1220480Y2229340D01*
X1214820Y2228980D01*
X1209260Y2227920D01*
X1203880Y2226180D01*
X1198740Y2223760D01*
X1193960Y2220740D01*
X1189600Y2217120D01*
X1185720Y2213000D01*
X1182400Y2208420D01*
X1179680Y2203460D01*
X1177580Y2198180D01*
X1176180Y2192700D01*
X1175460Y2187080D01*
X1175460Y2181420D01*
X1176180Y2175800D01*
X1177580Y2170320D01*
X1179680Y2165060D01*
X1182400Y2160100D01*
X1185720Y2155520D01*
X1189600Y2151380D01*
X1193960Y2147780D01*
X1198740Y2144740D01*
X1203880Y2142320D01*
X1209260Y2140580D01*
X1214820Y2139520D01*
G37*
G36*
X1005680Y2157420D02*
G01*
X1008240Y2158660D01*
X1012600Y2161580D01*
X1016540Y2165040D01*
X1020000Y2168980D01*
X1022900Y2173340D01*
X1025220Y2178040D01*
X1026919Y2183020D01*
X1027940Y2188160D01*
X1028280Y2193520D01*
X1028280Y2195340D01*
X1005680Y2195340D01*
G37*
G36*
X970680Y2157420D02*
G01*
X970680Y2195340D01*
X948080Y2195340D01*
X948080Y2193520D01*
X948439Y2188160D01*
X949460Y2183020D01*
X951140Y2178040D01*
X953460Y2173340D01*
X956380Y2168980D01*
X959840Y2165040D01*
X963780Y2161580D01*
X968139Y2158660D01*
G37*
G36*
X2242720Y2232000D02*
G01*
X2248760Y2232360D01*
X2254700Y2233440D01*
X2260480Y2235240D01*
X2266000Y2237740D01*
X2271180Y2240860D01*
X2275940Y2244600D01*
X2280220Y2248860D01*
X2283940Y2253640D01*
X2287080Y2258800D01*
X2289560Y2264320D01*
X2291360Y2270100D01*
X2292440Y2276040D01*
X2292800Y2282080D01*
X2292440Y2288120D01*
X2291360Y2294080D01*
X2289560Y2299860D01*
X2287080Y2305360D01*
X2283940Y2310540D01*
X2280220Y2315300D01*
X2275940Y2319580D01*
X2271180Y2323320D01*
X2266000Y2326440D01*
X2260480Y2328920D01*
X2254700Y2330720D01*
X2248760Y2331820D01*
X2242720Y2332180D01*
X2236680Y2331820D01*
X2230720Y2330720D01*
X2224960Y2328920D01*
X2219440Y2326440D01*
X2214260Y2323320D01*
X2209500Y2319580D01*
X2205220Y2315300D01*
X2201500Y2310540D01*
X2198360Y2305360D01*
X2195880Y2299860D01*
X2194080Y2294080D01*
X2192980Y2288120D01*
X2192620Y2282080D01*
X2192980Y2276040D01*
X2194080Y2270100D01*
X2195880Y2264320D01*
X2198360Y2258800D01*
X2201500Y2253640D01*
X2205220Y2248860D01*
X2209500Y2244600D01*
X2214260Y2240860D01*
X2219440Y2237740D01*
X2224960Y2235240D01*
X2230720Y2233440D01*
X2236680Y2232360D01*
G37*
G36*
X2078740Y2233220D02*
G01*
X2084319Y2233580D01*
X2089780Y2234640D01*
X2095080Y2236400D01*
X2100120Y2238820D01*
X2104800Y2241860D01*
X2109040Y2245480D01*
X2112800Y2249620D01*
X2115980Y2254200D01*
X2118560Y2259140D01*
X2120500Y2264380D01*
X2121740Y2269820D01*
X2122280Y2275380D01*
X2122100Y2280960D01*
X2121200Y2286460D01*
X2119620Y2291820D01*
X2117360Y2296920D01*
X2114460Y2301700D01*
X2110980Y2306060D01*
X2106980Y2309940D01*
X2102500Y2313280D01*
X2097640Y2316020D01*
X2092460Y2318120D01*
X2087060Y2319520D01*
X2081540Y2320240D01*
X2075960Y2320240D01*
X2070420Y2319520D01*
X2065020Y2318120D01*
X2059840Y2316020D01*
X2054980Y2313280D01*
X2050500Y2309940D01*
X2046500Y2306060D01*
X2043020Y2301700D01*
X2040120Y2296920D01*
X2037860Y2291820D01*
X2036279Y2286460D01*
X2035380Y2280960D01*
X2035200Y2275380D01*
X2035740Y2269820D01*
X2036980Y2264380D01*
X2038920Y2259140D01*
X2041500Y2254200D01*
X2044680Y2249620D01*
X2048440Y2245480D01*
X2052680Y2241860D01*
X2057360Y2238820D01*
X2062400Y2236400D01*
X2067700Y2234640D01*
X2073180Y2233580D01*
G37*
G36*
X1820480Y2239160D02*
G01*
X1826120Y2239520D01*
X1831680Y2240580D01*
X1837080Y2242320D01*
X1842200Y2244740D01*
X1846980Y2247780D01*
X1851339Y2251380D01*
X1855220Y2255520D01*
X1858540Y2260100D01*
X1861279Y2265060D01*
X1863360Y2270320D01*
X1864760Y2275800D01*
X1865480Y2281420D01*
X1865480Y2287080D01*
X1864760Y2292700D01*
X1863360Y2298180D01*
X1861279Y2303460D01*
X1858540Y2308420D01*
X1855220Y2313000D01*
X1851339Y2317120D01*
X1846980Y2320740D01*
X1842200Y2323760D01*
X1837080Y2326180D01*
X1831680Y2327920D01*
X1826120Y2328980D01*
X1820480Y2329340D01*
X1814820Y2328980D01*
X1809259Y2327920D01*
X1803880Y2326180D01*
X1798740Y2323760D01*
X1793959Y2320740D01*
X1789600Y2317120D01*
X1785720Y2313000D01*
X1782400Y2308420D01*
X1779680Y2303460D01*
X1777580Y2298180D01*
X1776180Y2292700D01*
X1775460Y2287080D01*
X1775460Y2281420D01*
X1776180Y2275800D01*
X1777580Y2270320D01*
X1779680Y2265060D01*
X1782400Y2260100D01*
X1785720Y2255520D01*
X1789600Y2251380D01*
X1793959Y2247780D01*
X1798740Y2244740D01*
X1803880Y2242320D01*
X1809259Y2240580D01*
X1814820Y2239520D01*
G37*
G36*
X1220480Y2239160D02*
G01*
X1226120Y2239520D01*
X1231680Y2240580D01*
X1237080Y2242320D01*
X1242200Y2244740D01*
X1246980Y2247780D01*
X1251340Y2251380D01*
X1255220Y2255520D01*
X1258540Y2260100D01*
X1261280Y2265060D01*
X1263360Y2270320D01*
X1264760Y2275800D01*
X1265480Y2281420D01*
X1265480Y2287080D01*
X1264760Y2292700D01*
X1263360Y2298180D01*
X1261280Y2303460D01*
X1258540Y2308420D01*
X1255220Y2313000D01*
X1251340Y2317120D01*
X1246980Y2320740D01*
X1242200Y2323760D01*
X1237080Y2326180D01*
X1231680Y2327920D01*
X1226120Y2328980D01*
X1220480Y2329340D01*
X1214820Y2328980D01*
X1209260Y2327920D01*
X1203880Y2326180D01*
X1198740Y2323760D01*
X1193960Y2320740D01*
X1189600Y2317120D01*
X1185720Y2313000D01*
X1182400Y2308420D01*
X1179680Y2303460D01*
X1177580Y2298180D01*
X1176180Y2292700D01*
X1175460Y2287080D01*
X1175460Y2281420D01*
X1176180Y2275800D01*
X1177580Y2270320D01*
X1179680Y2265060D01*
X1182400Y2260100D01*
X1185720Y2255520D01*
X1189600Y2251380D01*
X1193960Y2247780D01*
X1198740Y2244740D01*
X1203880Y2242320D01*
X1209260Y2240580D01*
X1214820Y2239520D01*
G37*
G36*
X1005680Y2269240D02*
G01*
X1028280Y2269240D01*
X1028280Y2271060D01*
X1027940Y2276420D01*
X1026919Y2281560D01*
X1025220Y2286520D01*
X1022900Y2291220D01*
X1020000Y2295580D01*
X1016540Y2299540D01*
X1012600Y2302980D01*
X1008240Y2305900D01*
X1005680Y2307160D01*
G37*
G36*
X948080Y2269240D02*
G01*
X970680Y2269240D01*
X970680Y2307160D01*
X968139Y2305900D01*
X963780Y2302980D01*
X959840Y2299540D01*
X956380Y2295580D01*
X953460Y2291220D01*
X951140Y2286520D01*
X949460Y2281560D01*
X948439Y2276420D01*
X948080Y2271060D01*
G37*
G36*
X744700Y2302420D02*
G01*
X861600Y2302420D01*
X866960Y2302780D01*
X872099Y2303800D01*
X877080Y2305480D01*
X881780Y2307800D01*
X886140Y2310720D01*
X890080Y2314180D01*
X893540Y2318120D01*
X896460Y2322480D01*
X898780Y2327180D01*
X900460Y2332140D01*
X901480Y2337280D01*
X901820Y2342520D01*
X901480Y2347760D01*
X900460Y2352900D01*
X898780Y2357860D01*
X896460Y2362560D01*
X893540Y2366920D01*
X890080Y2370860D01*
X886140Y2374320D01*
X881780Y2377240D01*
X877080Y2379560D01*
X872099Y2381240D01*
X866960Y2382260D01*
X861600Y2382620D01*
X744700Y2382620D01*
X739340Y2382260D01*
X734200Y2381240D01*
X729220Y2379560D01*
X724520Y2377240D01*
X720160Y2374320D01*
X716220Y2370860D01*
X712760Y2366920D01*
X709840Y2362560D01*
X707520Y2357860D01*
X705840Y2352900D01*
X704820Y2347760D01*
X704479Y2342520D01*
X704820Y2337280D01*
X705840Y2332140D01*
X707520Y2327180D01*
X709840Y2322480D01*
X712760Y2318120D01*
X716220Y2314180D01*
X720160Y2310720D01*
X724520Y2307800D01*
X729220Y2305480D01*
X734200Y2303800D01*
X739340Y2302780D01*
G37*
G36*
X2078740Y2333220D02*
G01*
X2084319Y2333580D01*
X2089780Y2334640D01*
X2095080Y2336400D01*
X2100120Y2338820D01*
X2104800Y2341860D01*
X2109040Y2345480D01*
X2112800Y2349620D01*
X2115980Y2354200D01*
X2118560Y2359140D01*
X2120500Y2364380D01*
X2121740Y2369820D01*
X2122280Y2375380D01*
X2122100Y2380960D01*
X2121200Y2386460D01*
X2119620Y2391820D01*
X2117360Y2396920D01*
X2114460Y2401700D01*
X2110980Y2406060D01*
X2106980Y2409940D01*
X2102500Y2413280D01*
X2097640Y2416020D01*
X2092460Y2418120D01*
X2087060Y2419520D01*
X2081540Y2420240D01*
X2075960Y2420240D01*
X2070420Y2419520D01*
X2065020Y2418120D01*
X2059840Y2416020D01*
X2054980Y2413280D01*
X2050500Y2409940D01*
X2046500Y2406060D01*
X2043020Y2401700D01*
X2040120Y2396920D01*
X2037860Y2391820D01*
X2036279Y2386460D01*
X2035380Y2380960D01*
X2035200Y2375380D01*
X2035740Y2369820D01*
X2036980Y2364380D01*
X2038920Y2359140D01*
X2041500Y2354200D01*
X2044680Y2349620D01*
X2048440Y2345480D01*
X2052680Y2341860D01*
X2057360Y2338820D01*
X2062400Y2336400D01*
X2067700Y2334640D01*
X2073180Y2333580D01*
G37*
G36*
X1820480Y2339160D02*
G01*
X1826120Y2339520D01*
X1831680Y2340580D01*
X1837080Y2342320D01*
X1842200Y2344740D01*
X1846980Y2347780D01*
X1851339Y2351380D01*
X1855220Y2355520D01*
X1858540Y2360100D01*
X1861279Y2365060D01*
X1863360Y2370320D01*
X1864760Y2375800D01*
X1865480Y2381420D01*
X1865480Y2387080D01*
X1864760Y2392700D01*
X1863360Y2398180D01*
X1861279Y2403460D01*
X1858540Y2408420D01*
X1855220Y2413000D01*
X1851339Y2417120D01*
X1846980Y2420740D01*
X1842200Y2423760D01*
X1837080Y2426180D01*
X1831680Y2427920D01*
X1826120Y2428980D01*
X1820480Y2429340D01*
X1814820Y2428980D01*
X1809259Y2427920D01*
X1803880Y2426180D01*
X1798740Y2423760D01*
X1793959Y2420740D01*
X1789600Y2417120D01*
X1785720Y2413000D01*
X1782400Y2408420D01*
X1779680Y2403460D01*
X1777580Y2398180D01*
X1776180Y2392700D01*
X1775460Y2387080D01*
X1775460Y2381420D01*
X1776180Y2375800D01*
X1777580Y2370320D01*
X1779680Y2365060D01*
X1782400Y2360100D01*
X1785720Y2355520D01*
X1789600Y2351380D01*
X1793959Y2347780D01*
X1798740Y2344740D01*
X1803880Y2342320D01*
X1809259Y2340580D01*
X1814820Y2339520D01*
G37*
G36*
X1220480Y2339160D02*
G01*
X1226120Y2339520D01*
X1231680Y2340580D01*
X1237080Y2342320D01*
X1242200Y2344740D01*
X1246980Y2347780D01*
X1251340Y2351380D01*
X1255220Y2355520D01*
X1258540Y2360100D01*
X1261280Y2365060D01*
X1263360Y2370320D01*
X1264760Y2375800D01*
X1265480Y2381420D01*
X1265480Y2387080D01*
X1264760Y2392700D01*
X1263360Y2398180D01*
X1261280Y2403460D01*
X1258540Y2408420D01*
X1255220Y2413000D01*
X1251340Y2417120D01*
X1246980Y2420740D01*
X1242200Y2423760D01*
X1237080Y2426180D01*
X1231680Y2427920D01*
X1226120Y2428980D01*
X1220480Y2429340D01*
X1214820Y2428980D01*
X1209260Y2427920D01*
X1203880Y2426180D01*
X1198740Y2423760D01*
X1193960Y2420740D01*
X1189600Y2417120D01*
X1185720Y2413000D01*
X1182400Y2408420D01*
X1179680Y2403460D01*
X1177580Y2398180D01*
X1176180Y2392700D01*
X1175460Y2387080D01*
X1175460Y2381420D01*
X1176180Y2375800D01*
X1177580Y2370320D01*
X1179680Y2365060D01*
X1182400Y2360100D01*
X1185720Y2355520D01*
X1189600Y2351380D01*
X1193960Y2347780D01*
X1198740Y2344740D01*
X1203880Y2342320D01*
X1209260Y2340580D01*
X1214820Y2339520D01*
G37*
G36*
X2045500Y2433200D02*
G01*
X2059500Y2433200D01*
X2059500Y2457540D01*
X2035180Y2457540D01*
X2035180Y2443540D01*
X2035460Y2441060D01*
X2036200Y2438940D01*
X2037400Y2437020D01*
X2039000Y2435440D01*
X2040900Y2434240D01*
X2043040Y2433480D01*
G37*
G36*
X2097980Y2433200D02*
G01*
X2111980Y2433200D01*
X2114440Y2433480D01*
X2116580Y2434240D01*
X2118480Y2435440D01*
X2120080Y2437020D01*
X2121280Y2438940D01*
X2122020Y2441060D01*
X2122300Y2443540D01*
X2122300Y2457540D01*
X2097980Y2457540D01*
G37*
G36*
X1220480Y2439160D02*
G01*
X1226120Y2439520D01*
X1231680Y2440580D01*
X1237080Y2442320D01*
X1242200Y2444740D01*
X1246980Y2447780D01*
X1251340Y2451380D01*
X1255220Y2455520D01*
X1258540Y2460100D01*
X1261280Y2465060D01*
X1263360Y2470320D01*
X1264760Y2475800D01*
X1265480Y2481420D01*
X1265480Y2487080D01*
X1264760Y2492700D01*
X1263360Y2498180D01*
X1261280Y2503460D01*
X1258540Y2508420D01*
X1255220Y2513000D01*
X1251340Y2517120D01*
X1246980Y2520740D01*
X1242200Y2523760D01*
X1237080Y2526180D01*
X1231680Y2527920D01*
X1226120Y2528980D01*
X1220480Y2529340D01*
X1214820Y2528980D01*
X1209260Y2527920D01*
X1203880Y2526180D01*
X1198740Y2523760D01*
X1193960Y2520740D01*
X1189600Y2517120D01*
X1185720Y2513000D01*
X1182400Y2508420D01*
X1179680Y2503460D01*
X1177580Y2498180D01*
X1176180Y2492700D01*
X1175460Y2487080D01*
X1175460Y2481420D01*
X1176180Y2475800D01*
X1177580Y2470320D01*
X1179680Y2465060D01*
X1182400Y2460100D01*
X1185720Y2455520D01*
X1189600Y2451380D01*
X1193960Y2447780D01*
X1198740Y2444740D01*
X1203880Y2442320D01*
X1209260Y2440580D01*
X1214820Y2439520D01*
G37*
G36*
X1820480Y2439160D02*
G01*
X1826120Y2439520D01*
X1831680Y2440580D01*
X1837080Y2442320D01*
X1842200Y2444740D01*
X1846980Y2447780D01*
X1851339Y2451380D01*
X1855220Y2455520D01*
X1858540Y2460100D01*
X1861279Y2465060D01*
X1863360Y2470320D01*
X1864760Y2475800D01*
X1865480Y2481420D01*
X1865480Y2487080D01*
X1864760Y2492700D01*
X1863360Y2498180D01*
X1861279Y2503460D01*
X1858540Y2508420D01*
X1855220Y2513000D01*
X1851339Y2517120D01*
X1846980Y2520740D01*
X1842200Y2523760D01*
X1837080Y2526180D01*
X1831680Y2527920D01*
X1826120Y2528980D01*
X1820480Y2529340D01*
X1814820Y2528980D01*
X1809259Y2527920D01*
X1803880Y2526180D01*
X1798740Y2523760D01*
X1793959Y2520740D01*
X1789600Y2517120D01*
X1785720Y2513000D01*
X1782400Y2508420D01*
X1779680Y2503460D01*
X1777580Y2498180D01*
X1776180Y2492700D01*
X1775460Y2487080D01*
X1775460Y2481420D01*
X1776180Y2475800D01*
X1777580Y2470320D01*
X1779680Y2465060D01*
X1782400Y2460100D01*
X1785720Y2455520D01*
X1789600Y2451380D01*
X1793959Y2447780D01*
X1798740Y2444740D01*
X1803880Y2442320D01*
X1809259Y2440580D01*
X1814820Y2439520D01*
G37*
G36*
X2035180Y2496000D02*
G01*
X2059500Y2496000D01*
X2059500Y2520340D01*
X2045500Y2520340D01*
X2043040Y2520060D01*
X2040900Y2519320D01*
X2039000Y2518120D01*
X2037400Y2516520D01*
X2036200Y2514600D01*
X2035460Y2512480D01*
X2035180Y2510020D01*
G37*
G36*
X2097980Y2496000D02*
G01*
X2122300Y2496000D01*
X2122300Y2510020D01*
X2122020Y2512480D01*
X2121280Y2514600D01*
X2120080Y2516520D01*
X2118480Y2518120D01*
X2116580Y2519320D01*
X2114440Y2520060D01*
X2111980Y2520340D01*
X2097980Y2520340D01*
G37*
G36*
X980320Y2529280D02*
G01*
X986020Y2529640D01*
X991640Y2530720D01*
X997080Y2532480D01*
X1002240Y2534920D01*
X1007080Y2537980D01*
X1011480Y2541620D01*
X1015400Y2545780D01*
X1018760Y2550420D01*
X1021500Y2555420D01*
X1023620Y2560740D01*
X1025040Y2566280D01*
X1025759Y2571940D01*
X1025759Y2577660D01*
X1025040Y2583340D01*
X1023620Y2588880D01*
X1021500Y2594180D01*
X1018760Y2599200D01*
X1015400Y2603820D01*
X1011480Y2608000D01*
X1007080Y2611640D01*
X1002240Y2614700D01*
X997080Y2617140D01*
X991640Y2618900D01*
X986020Y2619980D01*
X980320Y2620340D01*
X974599Y2619980D01*
X969000Y2618900D01*
X963560Y2617140D01*
X958379Y2614700D01*
X953560Y2611640D01*
X949160Y2608000D01*
X945240Y2603820D01*
X941880Y2599200D01*
X939120Y2594180D01*
X937020Y2588880D01*
X935600Y2583340D01*
X934880Y2577660D01*
X934880Y2571940D01*
X935600Y2566280D01*
X937020Y2560740D01*
X939120Y2555420D01*
X941880Y2550420D01*
X945240Y2545780D01*
X949160Y2541620D01*
X953560Y2537980D01*
X958379Y2534920D01*
X963560Y2532480D01*
X969000Y2530720D01*
X974599Y2529640D01*
G37*
G36*
X1820480Y2539160D02*
G01*
X1826120Y2539520D01*
X1831680Y2540580D01*
X1837080Y2542320D01*
X1842200Y2544740D01*
X1846980Y2547780D01*
X1851339Y2551380D01*
X1855220Y2555520D01*
X1858540Y2560100D01*
X1861279Y2565059D01*
X1863360Y2570320D01*
X1864760Y2575800D01*
X1865480Y2581420D01*
X1865480Y2587080D01*
X1864760Y2592700D01*
X1863360Y2598180D01*
X1861279Y2603460D01*
X1858540Y2608420D01*
X1855220Y2613000D01*
X1851339Y2617120D01*
X1846980Y2620740D01*
X1842200Y2623759D01*
X1837080Y2626180D01*
X1831680Y2627919D01*
X1826120Y2628980D01*
X1820480Y2629340D01*
X1814820Y2628980D01*
X1809259Y2627919D01*
X1803880Y2626180D01*
X1798740Y2623759D01*
X1793959Y2620740D01*
X1789600Y2617120D01*
X1785720Y2613000D01*
X1782400Y2608420D01*
X1779680Y2603460D01*
X1777580Y2598180D01*
X1776180Y2592700D01*
X1775460Y2587080D01*
X1775460Y2581420D01*
X1776180Y2575800D01*
X1777580Y2570320D01*
X1779680Y2565059D01*
X1782400Y2560100D01*
X1785720Y2555520D01*
X1789600Y2551380D01*
X1793959Y2547780D01*
X1798740Y2544740D01*
X1803880Y2542320D01*
X1809259Y2540580D01*
X1814820Y2539520D01*
G37*
G36*
X1220480Y2539160D02*
G01*
X1226120Y2539520D01*
X1231680Y2540580D01*
X1237080Y2542320D01*
X1242200Y2544740D01*
X1246980Y2547780D01*
X1251340Y2551380D01*
X1255220Y2555520D01*
X1258540Y2560100D01*
X1261280Y2565059D01*
X1263360Y2570320D01*
X1264760Y2575800D01*
X1265480Y2581420D01*
X1265480Y2587080D01*
X1264760Y2592700D01*
X1263360Y2598180D01*
X1261280Y2603460D01*
X1258540Y2608420D01*
X1255220Y2613000D01*
X1251340Y2617120D01*
X1246980Y2620740D01*
X1242200Y2623759D01*
X1237080Y2626180D01*
X1231680Y2627919D01*
X1226120Y2628980D01*
X1220480Y2629340D01*
X1214820Y2628980D01*
X1209260Y2627919D01*
X1203880Y2626180D01*
X1198740Y2623759D01*
X1193960Y2620740D01*
X1189600Y2617120D01*
X1185720Y2613000D01*
X1182400Y2608420D01*
X1179680Y2603460D01*
X1177580Y2598180D01*
X1176180Y2592700D01*
X1175460Y2587080D01*
X1175460Y2581420D01*
X1176180Y2575800D01*
X1177580Y2570320D01*
X1179680Y2565059D01*
X1182400Y2560100D01*
X1185720Y2555520D01*
X1189600Y2551380D01*
X1193960Y2547780D01*
X1198740Y2544740D01*
X1203880Y2542320D01*
X1209260Y2540580D01*
X1214820Y2539520D01*
G37*
G36*
X622280Y2619820D02*
G01*
X716320Y2619820D01*
X718780Y2620100D01*
X720900Y2620840D01*
X722820Y2622040D01*
X724419Y2623639D01*
X725620Y2625560D01*
X726360Y2627679D01*
X726640Y2630140D01*
X726640Y2724180D01*
X726360Y2726660D01*
X725620Y2728780D01*
X724419Y2730700D01*
X722820Y2732280D01*
X720900Y2733480D01*
X718780Y2734240D01*
X716320Y2734520D01*
X622280Y2734520D01*
X619800Y2734240D01*
X617680Y2733480D01*
X615760Y2732280D01*
X614160Y2730700D01*
X612960Y2728780D01*
X612220Y2726660D01*
X611940Y2724180D01*
X611940Y2630140D01*
X612220Y2627679D01*
X612960Y2625560D01*
X614160Y2623639D01*
X615760Y2622040D01*
X617680Y2620840D01*
X619800Y2620100D01*
G37*
G36*
X1220480Y2639160D02*
G01*
X1226120Y2639520D01*
X1231680Y2640580D01*
X1237080Y2642320D01*
X1242200Y2644740D01*
X1246980Y2647780D01*
X1251340Y2651380D01*
X1255220Y2655520D01*
X1258540Y2660100D01*
X1261280Y2665059D01*
X1263360Y2670320D01*
X1264760Y2675800D01*
X1265480Y2681420D01*
X1265480Y2687080D01*
X1264760Y2692700D01*
X1263360Y2698180D01*
X1261280Y2703460D01*
X1258540Y2708420D01*
X1255220Y2713000D01*
X1251340Y2717120D01*
X1246980Y2720740D01*
X1242200Y2723759D01*
X1237080Y2726180D01*
X1231680Y2727919D01*
X1226120Y2728980D01*
X1220480Y2729340D01*
X1214820Y2728980D01*
X1209260Y2727919D01*
X1203880Y2726180D01*
X1198740Y2723759D01*
X1193960Y2720740D01*
X1189600Y2717120D01*
X1185720Y2713000D01*
X1182400Y2708420D01*
X1179680Y2703460D01*
X1177580Y2698180D01*
X1176180Y2692700D01*
X1175460Y2687080D01*
X1175460Y2681420D01*
X1176180Y2675800D01*
X1177580Y2670320D01*
X1179680Y2665059D01*
X1182400Y2660100D01*
X1185720Y2655520D01*
X1189600Y2651380D01*
X1193960Y2647780D01*
X1198740Y2644740D01*
X1203880Y2642320D01*
X1209260Y2640580D01*
X1214820Y2639520D01*
G37*
G36*
X1820480Y2639160D02*
G01*
X1826120Y2639520D01*
X1831680Y2640580D01*
X1837080Y2642320D01*
X1842200Y2644740D01*
X1846980Y2647780D01*
X1851339Y2651380D01*
X1855220Y2655520D01*
X1858540Y2660100D01*
X1861279Y2665059D01*
X1863360Y2670320D01*
X1864760Y2675800D01*
X1865480Y2681420D01*
X1865480Y2687080D01*
X1864760Y2692700D01*
X1863360Y2698180D01*
X1861279Y2703460D01*
X1858540Y2708420D01*
X1855220Y2713000D01*
X1851339Y2717120D01*
X1846980Y2720740D01*
X1842200Y2723759D01*
X1837080Y2726180D01*
X1831680Y2727919D01*
X1826120Y2728980D01*
X1820480Y2729340D01*
X1814820Y2728980D01*
X1809259Y2727919D01*
X1803880Y2726180D01*
X1798740Y2723759D01*
X1793959Y2720740D01*
X1789600Y2717120D01*
X1785720Y2713000D01*
X1782400Y2708420D01*
X1779680Y2703460D01*
X1777580Y2698180D01*
X1776180Y2692700D01*
X1775460Y2687080D01*
X1775460Y2681420D01*
X1776180Y2675800D01*
X1777580Y2670320D01*
X1779680Y2665059D01*
X1782400Y2660100D01*
X1785720Y2655520D01*
X1789600Y2651380D01*
X1793959Y2647780D01*
X1798740Y2644740D01*
X1803880Y2642320D01*
X1809259Y2640580D01*
X1814820Y2639520D01*
G37*
G36*
X2074800Y2652900D02*
G01*
X2080380Y2653260D01*
X2085860Y2654320D01*
X2091140Y2656080D01*
X2096180Y2658500D01*
X2100860Y2661560D01*
X2105100Y2665160D01*
X2108860Y2669300D01*
X2112060Y2673880D01*
X2114640Y2678820D01*
X2116560Y2684060D01*
X2117800Y2689500D01*
X2118340Y2695059D01*
X2118160Y2700640D01*
X2117260Y2706160D01*
X2115680Y2711500D01*
X2113420Y2716600D01*
X2110520Y2721380D01*
X2107040Y2725740D01*
X2103040Y2729620D01*
X2098560Y2732960D01*
X2093700Y2735700D01*
X2088520Y2737799D01*
X2083140Y2739220D01*
X2077600Y2739920D01*
X2072020Y2739920D01*
X2066480Y2739220D01*
X2061080Y2737799D01*
X2055900Y2735700D01*
X2051040Y2732960D01*
X2046560Y2729620D01*
X2042560Y2725740D01*
X2039079Y2721380D01*
X2036180Y2716600D01*
X2033920Y2711500D01*
X2032340Y2706160D01*
X2031440Y2700640D01*
X2031279Y2695059D01*
X2031800Y2689500D01*
X2033040Y2684060D01*
X2034980Y2678820D01*
X2037560Y2673880D01*
X2040760Y2669300D01*
X2044500Y2665160D01*
X2048760Y2661560D01*
X2053440Y2658500D01*
X2058460Y2656080D01*
X2063760Y2654320D01*
X2069240Y2653260D01*
G37*
G36*
X1820480Y2739160D02*
G01*
X1826120Y2739520D01*
X1831680Y2740580D01*
X1837080Y2742320D01*
X1842200Y2744740D01*
X1846980Y2747780D01*
X1851339Y2751380D01*
X1855220Y2755520D01*
X1858540Y2760100D01*
X1861279Y2765059D01*
X1863360Y2770320D01*
X1864760Y2775800D01*
X1865480Y2781420D01*
X1865480Y2787080D01*
X1864760Y2792700D01*
X1863360Y2798180D01*
X1861279Y2803460D01*
X1858540Y2808420D01*
X1855220Y2813000D01*
X1851339Y2817120D01*
X1846980Y2820740D01*
X1842200Y2823759D01*
X1837080Y2826180D01*
X1831680Y2827919D01*
X1826120Y2828980D01*
X1820480Y2829340D01*
X1814820Y2828980D01*
X1809259Y2827919D01*
X1803880Y2826180D01*
X1798740Y2823759D01*
X1793959Y2820740D01*
X1789600Y2817120D01*
X1785720Y2813000D01*
X1782400Y2808420D01*
X1779680Y2803460D01*
X1777580Y2798180D01*
X1776180Y2792700D01*
X1775460Y2787080D01*
X1775460Y2781420D01*
X1776180Y2775800D01*
X1777580Y2770320D01*
X1779680Y2765059D01*
X1782400Y2760100D01*
X1785720Y2755520D01*
X1789600Y2751380D01*
X1793959Y2747780D01*
X1798740Y2744740D01*
X1803880Y2742320D01*
X1809259Y2740580D01*
X1814820Y2739520D01*
G37*
G36*
X1220480Y2739160D02*
G01*
X1226120Y2739520D01*
X1231680Y2740580D01*
X1237080Y2742320D01*
X1242200Y2744740D01*
X1246980Y2747780D01*
X1251340Y2751380D01*
X1255220Y2755520D01*
X1258540Y2760100D01*
X1261280Y2765059D01*
X1263360Y2770320D01*
X1264760Y2775800D01*
X1265480Y2781420D01*
X1265480Y2787080D01*
X1264760Y2792700D01*
X1263360Y2798180D01*
X1261280Y2803460D01*
X1258540Y2808420D01*
X1255220Y2813000D01*
X1251340Y2817120D01*
X1246980Y2820740D01*
X1242200Y2823759D01*
X1237080Y2826180D01*
X1231680Y2827919D01*
X1226120Y2828980D01*
X1220480Y2829340D01*
X1214820Y2828980D01*
X1209260Y2827919D01*
X1203880Y2826180D01*
X1198740Y2823759D01*
X1193960Y2820740D01*
X1189600Y2817120D01*
X1185720Y2813000D01*
X1182400Y2808420D01*
X1179680Y2803460D01*
X1177580Y2798180D01*
X1176180Y2792700D01*
X1175460Y2787080D01*
X1175460Y2781420D01*
X1176180Y2775800D01*
X1177580Y2770320D01*
X1179680Y2765059D01*
X1182400Y2760100D01*
X1185720Y2755520D01*
X1189600Y2751380D01*
X1193960Y2747780D01*
X1198740Y2744740D01*
X1203880Y2742320D01*
X1209260Y2740580D01*
X1214820Y2739520D01*
G37*
G36*
X2074800Y2752900D02*
G01*
X2080380Y2753260D01*
X2085860Y2754320D01*
X2091140Y2756080D01*
X2096180Y2758500D01*
X2100860Y2761560D01*
X2105100Y2765160D01*
X2108860Y2769300D01*
X2112060Y2773880D01*
X2114640Y2778820D01*
X2116560Y2784060D01*
X2117800Y2789500D01*
X2118340Y2795059D01*
X2118160Y2800640D01*
X2117260Y2806160D01*
X2115680Y2811500D01*
X2113420Y2816600D01*
X2110520Y2821380D01*
X2107040Y2825740D01*
X2103040Y2829620D01*
X2098560Y2832960D01*
X2093700Y2835700D01*
X2088520Y2837799D01*
X2083140Y2839220D01*
X2077600Y2839920D01*
X2072020Y2839920D01*
X2066480Y2839220D01*
X2061080Y2837799D01*
X2055900Y2835700D01*
X2051040Y2832960D01*
X2046560Y2829620D01*
X2042560Y2825740D01*
X2039079Y2821380D01*
X2036180Y2816600D01*
X2033920Y2811500D01*
X2032340Y2806160D01*
X2031440Y2800640D01*
X2031279Y2795059D01*
X2031800Y2789500D01*
X2033040Y2784060D01*
X2034980Y2778820D01*
X2037560Y2773880D01*
X2040760Y2769300D01*
X2044500Y2765160D01*
X2048760Y2761560D01*
X2053440Y2758500D01*
X2058460Y2756080D01*
X2063760Y2754320D01*
X2069240Y2753260D01*
G37*
G36*
X669300Y2816680D02*
G01*
X675720Y2817040D01*
X682060Y2818120D01*
X688220Y2819900D01*
X694160Y2822360D01*
X699800Y2825460D01*
X705040Y2829180D01*
X709840Y2833480D01*
X714120Y2838260D01*
X717840Y2843519D01*
X720960Y2849140D01*
X723420Y2855080D01*
X725200Y2861259D01*
X726260Y2867600D01*
X726620Y2874020D01*
X726260Y2880440D01*
X725200Y2886780D01*
X723420Y2892960D01*
X720960Y2898900D01*
X717840Y2904520D01*
X714120Y2909760D01*
X709840Y2914560D01*
X705040Y2918840D01*
X699800Y2922559D01*
X694160Y2925680D01*
X688220Y2928140D01*
X682060Y2929920D01*
X675720Y2931000D01*
X669300Y2931360D01*
X662880Y2931000D01*
X656540Y2929920D01*
X650360Y2928140D01*
X644419Y2925680D01*
X638780Y2922559D01*
X633540Y2918840D01*
X628740Y2914560D01*
X624460Y2909760D01*
X620740Y2904520D01*
X617640Y2898900D01*
X615180Y2892960D01*
X613380Y2886780D01*
X612320Y2880440D01*
X611960Y2874020D01*
X612320Y2867600D01*
X613380Y2861259D01*
X615180Y2855080D01*
X617640Y2849140D01*
X620740Y2843519D01*
X624460Y2838260D01*
X628740Y2833480D01*
X633540Y2829180D01*
X638780Y2825460D01*
X644419Y2822360D01*
X650360Y2819900D01*
X656540Y2818120D01*
X662880Y2817040D01*
G37*
G36*
X1820480Y2839160D02*
G01*
X1826120Y2839520D01*
X1831680Y2840580D01*
X1837080Y2842320D01*
X1842200Y2844740D01*
X1846980Y2847780D01*
X1851339Y2851380D01*
X1855220Y2855520D01*
X1858540Y2860100D01*
X1861279Y2865059D01*
X1863360Y2870320D01*
X1864760Y2875800D01*
X1865480Y2881420D01*
X1865480Y2887080D01*
X1864760Y2892700D01*
X1863360Y2898180D01*
X1861279Y2903460D01*
X1858540Y2908420D01*
X1855220Y2913000D01*
X1851339Y2917120D01*
X1846980Y2920740D01*
X1842200Y2923759D01*
X1837080Y2926180D01*
X1831680Y2927919D01*
X1826120Y2928980D01*
X1820480Y2929340D01*
X1814820Y2928980D01*
X1809259Y2927919D01*
X1803880Y2926180D01*
X1798740Y2923759D01*
X1793959Y2920740D01*
X1789600Y2917120D01*
X1785720Y2913000D01*
X1782400Y2908420D01*
X1779680Y2903460D01*
X1777580Y2898180D01*
X1776180Y2892700D01*
X1775460Y2887080D01*
X1775460Y2881420D01*
X1776180Y2875800D01*
X1777580Y2870320D01*
X1779680Y2865059D01*
X1782400Y2860100D01*
X1785720Y2855520D01*
X1789600Y2851380D01*
X1793959Y2847780D01*
X1798740Y2844740D01*
X1803880Y2842320D01*
X1809259Y2840580D01*
X1814820Y2839520D01*
G37*
G36*
X1220480Y2839160D02*
G01*
X1226120Y2839520D01*
X1231680Y2840580D01*
X1237080Y2842320D01*
X1242200Y2844740D01*
X1246980Y2847780D01*
X1251340Y2851380D01*
X1255220Y2855520D01*
X1258540Y2860100D01*
X1261280Y2865059D01*
X1263360Y2870320D01*
X1264760Y2875800D01*
X1265480Y2881420D01*
X1265480Y2887080D01*
X1264760Y2892700D01*
X1263360Y2898180D01*
X1261280Y2903460D01*
X1258540Y2908420D01*
X1255220Y2913000D01*
X1251340Y2917120D01*
X1246980Y2920740D01*
X1242200Y2923759D01*
X1237080Y2926180D01*
X1231680Y2927919D01*
X1226120Y2928980D01*
X1220480Y2929340D01*
X1214820Y2928980D01*
X1209260Y2927919D01*
X1203880Y2926180D01*
X1198740Y2923759D01*
X1193960Y2920740D01*
X1189600Y2917120D01*
X1185720Y2913000D01*
X1182400Y2908420D01*
X1179680Y2903460D01*
X1177580Y2898180D01*
X1176180Y2892700D01*
X1175460Y2887080D01*
X1175460Y2881420D01*
X1176180Y2875800D01*
X1177580Y2870320D01*
X1179680Y2865059D01*
X1182400Y2860100D01*
X1185720Y2855520D01*
X1189600Y2851380D01*
X1193960Y2847780D01*
X1198740Y2844740D01*
X1203880Y2842320D01*
X1209260Y2840580D01*
X1214820Y2839520D01*
G37*
G36*
X2074800Y2852900D02*
G01*
X2080380Y2853260D01*
X2085860Y2854320D01*
X2091140Y2856080D01*
X2096180Y2858500D01*
X2100860Y2861560D01*
X2105100Y2865160D01*
X2108860Y2869300D01*
X2112060Y2873880D01*
X2114640Y2878820D01*
X2116560Y2884060D01*
X2117800Y2889500D01*
X2118340Y2895059D01*
X2118160Y2900640D01*
X2117260Y2906160D01*
X2115680Y2911500D01*
X2113420Y2916600D01*
X2110520Y2921380D01*
X2107040Y2925740D01*
X2103040Y2929620D01*
X2098560Y2932960D01*
X2093700Y2935700D01*
X2088520Y2937799D01*
X2083140Y2939220D01*
X2077600Y2939920D01*
X2072020Y2939920D01*
X2066480Y2939220D01*
X2061080Y2937799D01*
X2055900Y2935700D01*
X2051040Y2932960D01*
X2046560Y2929620D01*
X2042560Y2925740D01*
X2039079Y2921380D01*
X2036180Y2916600D01*
X2033920Y2911500D01*
X2032340Y2906160D01*
X2031440Y2900640D01*
X2031279Y2895059D01*
X2031800Y2889500D01*
X2033040Y2884060D01*
X2034980Y2878820D01*
X2037560Y2873880D01*
X2040760Y2869300D01*
X2044500Y2865160D01*
X2048760Y2861560D01*
X2053440Y2858500D01*
X2058460Y2856080D01*
X2063760Y2854320D01*
X2069240Y2853260D01*
G37*
G36*
X980320Y2891480D02*
G01*
X986020Y2891840D01*
X991640Y2892919D01*
X997080Y2894680D01*
X1002240Y2897120D01*
X1007080Y2900179D01*
X1011480Y2903820D01*
X1015400Y2908000D01*
X1018760Y2912620D01*
X1021500Y2917620D01*
X1023620Y2922940D01*
X1025040Y2928480D01*
X1025759Y2934160D01*
X1025759Y2939860D01*
X1025040Y2945539D01*
X1023620Y2951080D01*
X1021500Y2956400D01*
X1018760Y2961400D01*
X1015400Y2966019D01*
X1011480Y2970200D01*
X1007080Y2973840D01*
X1002240Y2976900D01*
X997080Y2979340D01*
X991640Y2981100D01*
X986020Y2982180D01*
X980320Y2982540D01*
X974599Y2982180D01*
X969000Y2981100D01*
X963560Y2979340D01*
X958379Y2976900D01*
X953560Y2973840D01*
X949160Y2970200D01*
X945240Y2966019D01*
X941880Y2961400D01*
X939120Y2956400D01*
X937020Y2951080D01*
X935600Y2945539D01*
X934880Y2939860D01*
X934880Y2934160D01*
X935600Y2928480D01*
X937020Y2922940D01*
X939120Y2917620D01*
X941880Y2912620D01*
X945240Y2908000D01*
X949160Y2903820D01*
X953560Y2900179D01*
X958379Y2897120D01*
X963560Y2894680D01*
X969000Y2892919D01*
X974599Y2891840D01*
G37*
G36*
X1220480Y2939160D02*
G01*
X1226120Y2939520D01*
X1231680Y2940580D01*
X1237080Y2942320D01*
X1242200Y2944740D01*
X1246980Y2947780D01*
X1251340Y2951380D01*
X1255220Y2955520D01*
X1258540Y2960100D01*
X1261280Y2965059D01*
X1263360Y2970320D01*
X1264760Y2975800D01*
X1265480Y2981420D01*
X1265480Y2987080D01*
X1264760Y2992700D01*
X1263360Y2998180D01*
X1261280Y3003460D01*
X1258540Y3008420D01*
X1255220Y3013000D01*
X1251340Y3017120D01*
X1246980Y3020740D01*
X1242200Y3023759D01*
X1237080Y3026180D01*
X1231680Y3027919D01*
X1226120Y3028980D01*
X1220480Y3029340D01*
X1214820Y3028980D01*
X1209260Y3027919D01*
X1203880Y3026180D01*
X1198740Y3023759D01*
X1193960Y3020740D01*
X1189600Y3017120D01*
X1185720Y3013000D01*
X1182400Y3008420D01*
X1179680Y3003460D01*
X1177580Y2998180D01*
X1176180Y2992700D01*
X1175460Y2987080D01*
X1175460Y2981420D01*
X1176180Y2975800D01*
X1177580Y2970320D01*
X1179680Y2965059D01*
X1182400Y2960100D01*
X1185720Y2955520D01*
X1189600Y2951380D01*
X1193960Y2947780D01*
X1198740Y2944740D01*
X1203880Y2942320D01*
X1209260Y2940580D01*
X1214820Y2939520D01*
G37*
G36*
X1820480Y2939160D02*
G01*
X1826120Y2939520D01*
X1831680Y2940580D01*
X1837080Y2942320D01*
X1842200Y2944740D01*
X1846980Y2947780D01*
X1851339Y2951380D01*
X1855220Y2955520D01*
X1858540Y2960100D01*
X1861279Y2965059D01*
X1863360Y2970320D01*
X1864760Y2975800D01*
X1865480Y2981420D01*
X1865480Y2987080D01*
X1864760Y2992700D01*
X1863360Y2998180D01*
X1861279Y3003460D01*
X1858540Y3008420D01*
X1855220Y3013000D01*
X1851339Y3017120D01*
X1846980Y3020740D01*
X1842200Y3023759D01*
X1837080Y3026180D01*
X1831680Y3027919D01*
X1826120Y3028980D01*
X1820480Y3029340D01*
X1814820Y3028980D01*
X1809259Y3027919D01*
X1803880Y3026180D01*
X1798740Y3023759D01*
X1792220Y3019600D01*
X1790860Y3019360D01*
X1669740Y3019360D01*
X1668200Y3019660D01*
X1666920Y3020520D01*
X1524460Y3162980D01*
X1523600Y3164280D01*
X1523280Y3165800D01*
X1523280Y3338519D01*
X1523200Y3341080D01*
X1522940Y3343580D01*
X1522480Y3346040D01*
X1521860Y3348480D01*
X1521080Y3350840D01*
X1520120Y3353159D01*
X1519000Y3355400D01*
X1517720Y3357559D01*
X1516279Y3359620D01*
X1514720Y3361560D01*
X1512960Y3363460D01*
X1367380Y3509020D01*
X1365500Y3510779D01*
X1363560Y3512360D01*
X1361500Y3513780D01*
X1359340Y3515059D01*
X1357100Y3516180D01*
X1354780Y3517140D01*
X1352400Y3517919D01*
X1349980Y3518540D01*
X1347520Y3519000D01*
X1345020Y3519260D01*
X1342440Y3519360D01*
X1130000Y3519360D01*
X1127420Y3519260D01*
X1124920Y3519000D01*
X1122460Y3518540D01*
X1120040Y3517919D01*
X1117660Y3517140D01*
X1115340Y3516180D01*
X1113100Y3515059D01*
X1110940Y3513780D01*
X1108880Y3512360D01*
X1106940Y3510779D01*
X1105060Y3509020D01*
X1061440Y3465400D01*
X1060140Y3464540D01*
X1058600Y3464240D01*
X1006440Y3464240D01*
X1005440Y3464360D01*
X1004500Y3464720D01*
X1003100Y3465500D01*
X998100Y3467420D01*
X992880Y3468660D01*
X987560Y3469200D01*
X982200Y3469020D01*
X976919Y3468140D01*
X971820Y3466540D01*
X966960Y3464300D01*
X962440Y3461420D01*
X958360Y3457960D01*
X954760Y3453980D01*
X951720Y3449560D01*
X949320Y3444780D01*
X947560Y3439720D01*
X946480Y3434480D01*
X946140Y3429140D01*
X946480Y3423800D01*
X947560Y3418540D01*
X949320Y3413480D01*
X951720Y3408700D01*
X954760Y3404280D01*
X958360Y3400320D01*
X962440Y3396860D01*
X966960Y3393980D01*
X971820Y3391720D01*
X976919Y3390140D01*
X982200Y3389240D01*
X987560Y3389060D01*
X992880Y3389600D01*
X998100Y3390840D01*
X1003100Y3392760D01*
X1004500Y3393540D01*
X1005440Y3393920D01*
X1006440Y3394040D01*
X1074740Y3394040D01*
X1077300Y3394120D01*
X1079800Y3394400D01*
X1082260Y3394840D01*
X1084700Y3395460D01*
X1087060Y3396259D01*
X1089380Y3397220D01*
X1091620Y3398340D01*
X1093780Y3399620D01*
X1095840Y3401040D01*
X1097780Y3402620D01*
X1099680Y3404360D01*
X1143280Y3447980D01*
X1144580Y3448840D01*
X1146120Y3449160D01*
X1326320Y3449160D01*
X1327860Y3448840D01*
X1329160Y3447980D01*
X1451920Y3325220D01*
X1452780Y3323920D01*
X1453100Y3322380D01*
X1453100Y3149680D01*
X1453180Y3147100D01*
X1453440Y3144620D01*
X1453899Y3142140D01*
X1454520Y3139720D01*
X1455300Y3137340D01*
X1456260Y3135020D01*
X1457380Y3132780D01*
X1458660Y3130640D01*
X1460100Y3128580D01*
X1461660Y3126620D01*
X1463420Y3124740D01*
X1628680Y2959480D01*
X1630560Y2957720D01*
X1632520Y2956160D01*
X1634560Y2954720D01*
X1636720Y2953440D01*
X1638959Y2952320D01*
X1641279Y2951360D01*
X1643660Y2950580D01*
X1646080Y2949960D01*
X1648540Y2949520D01*
X1651040Y2949240D01*
X1653620Y2949160D01*
X1790860Y2949160D01*
X1792220Y2948920D01*
X1798740Y2944740D01*
X1803880Y2942320D01*
X1809259Y2940580D01*
X1814820Y2939520D01*
G37*
G36*
X2041560Y2952900D02*
G01*
X2055580Y2952900D01*
X2055580Y2977220D01*
X2031240Y2977220D01*
X2031240Y2963220D01*
X2031519Y2960760D01*
X2032260Y2958620D01*
X2033460Y2956720D01*
X2035060Y2955120D01*
X2036960Y2953920D01*
X2039100Y2953180D01*
G37*
G36*
X2094040Y2952900D02*
G01*
X2108040Y2952900D01*
X2110520Y2953180D01*
X2112640Y2953920D01*
X2114560Y2955120D01*
X2116140Y2956720D01*
X2117340Y2958620D01*
X2118100Y2960760D01*
X2118360Y2963220D01*
X2118360Y2977220D01*
X2094040Y2977220D01*
G37*
G36*
X2031240Y3015700D02*
G01*
X2055580Y3015700D01*
X2055580Y3040020D01*
X2041560Y3040020D01*
X2039100Y3039740D01*
X2036960Y3039000D01*
X2035060Y3037799D01*
X2033460Y3036200D01*
X2032260Y3034300D01*
X2031519Y3032160D01*
X2031240Y3029700D01*
G37*
G36*
X2094040Y3015700D02*
G01*
X2118360Y3015700D01*
X2118360Y3029700D01*
X2118100Y3032160D01*
X2117340Y3034300D01*
X2116140Y3036200D01*
X2114560Y3037799D01*
X2112640Y3039000D01*
X2110520Y3039740D01*
X2108040Y3040020D01*
X2094040Y3040020D01*
G37*
G36*
X1820480Y3039160D02*
G01*
X1826120Y3039520D01*
X1831680Y3040580D01*
X1837080Y3042320D01*
X1842200Y3044740D01*
X1846980Y3047780D01*
X1851339Y3051380D01*
X1855220Y3055520D01*
X1858540Y3060100D01*
X1861279Y3065059D01*
X1863360Y3070320D01*
X1864760Y3075800D01*
X1865480Y3081420D01*
X1865480Y3087080D01*
X1864760Y3092700D01*
X1863360Y3098180D01*
X1861279Y3103460D01*
X1858540Y3108420D01*
X1855220Y3113000D01*
X1851339Y3117120D01*
X1846980Y3120740D01*
X1842200Y3123759D01*
X1837080Y3126180D01*
X1831680Y3127919D01*
X1826120Y3128980D01*
X1820480Y3129340D01*
X1814820Y3128980D01*
X1809259Y3127919D01*
X1803880Y3126180D01*
X1798740Y3123759D01*
X1793959Y3120740D01*
X1789600Y3117120D01*
X1785720Y3113000D01*
X1782400Y3108420D01*
X1779680Y3103460D01*
X1777580Y3098180D01*
X1776180Y3092700D01*
X1775460Y3087080D01*
X1775460Y3081420D01*
X1776180Y3075800D01*
X1777580Y3070320D01*
X1779680Y3065059D01*
X1782400Y3060100D01*
X1785720Y3055520D01*
X1789600Y3051380D01*
X1793959Y3047780D01*
X1798740Y3044740D01*
X1803880Y3042320D01*
X1809259Y3040580D01*
X1814820Y3039520D01*
G37*
G36*
X1200480Y3043920D02*
G01*
X1200480Y3064260D01*
X1180120Y3064260D01*
X1182400Y3060100D01*
X1185720Y3055520D01*
X1189600Y3051380D01*
X1193960Y3047780D01*
X1198740Y3044740D01*
G37*
G36*
X1240480Y3043920D02*
G01*
X1242200Y3044740D01*
X1246980Y3047780D01*
X1251340Y3051380D01*
X1255220Y3055520D01*
X1258540Y3060100D01*
X1260840Y3064260D01*
X1240480Y3064260D01*
G37*
G36*
X1240480Y3104260D02*
G01*
X1260840Y3104260D01*
X1258540Y3108420D01*
X1255220Y3113000D01*
X1251340Y3117120D01*
X1246980Y3120740D01*
X1242200Y3123759D01*
X1240480Y3124580D01*
G37*
G36*
X1180120Y3104260D02*
G01*
X1200480Y3104260D01*
X1200480Y3124580D01*
X1198740Y3123759D01*
X1193960Y3120740D01*
X1189600Y3117120D01*
X1185720Y3113000D01*
X1182400Y3108420D01*
G37*
G36*
X671880Y3123759D02*
G01*
X742300Y3123759D01*
X744760Y3124040D01*
X746900Y3124780D01*
X748800Y3125980D01*
X750400Y3127580D01*
X751600Y3129480D01*
X752340Y3131620D01*
X752620Y3134080D01*
X752620Y3204500D01*
X752340Y3206960D01*
X751600Y3209100D01*
X750400Y3211000D01*
X748800Y3212600D01*
X746900Y3213800D01*
X744760Y3214540D01*
X742300Y3214820D01*
X671880Y3214820D01*
X669419Y3214540D01*
X667280Y3213800D01*
X665380Y3212600D01*
X663780Y3211000D01*
X662580Y3209100D01*
X661840Y3206960D01*
X661560Y3204500D01*
X661560Y3134080D01*
X661840Y3131620D01*
X662580Y3129480D01*
X663780Y3127580D01*
X665380Y3125980D01*
X667280Y3124780D01*
X669419Y3124040D01*
G37*
G36*
X804220Y3123860D02*
G01*
X809940Y3123860D01*
X815620Y3124580D01*
X821160Y3126000D01*
X826480Y3128100D01*
X831480Y3130860D01*
X836100Y3134220D01*
X840280Y3138120D01*
X843920Y3142540D01*
X846979Y3147360D01*
X849419Y3152540D01*
X851180Y3157980D01*
X852260Y3163580D01*
X852620Y3169300D01*
X852260Y3175000D01*
X851180Y3180620D01*
X849419Y3186060D01*
X846979Y3191220D01*
X843920Y3196060D01*
X840280Y3200460D01*
X836100Y3204380D01*
X831480Y3207740D01*
X826480Y3210480D01*
X821160Y3212580D01*
X815620Y3214020D01*
X809940Y3214720D01*
X804220Y3214720D01*
X798560Y3214020D01*
X793020Y3212580D01*
X787700Y3210480D01*
X782700Y3207740D01*
X778060Y3204380D01*
X773900Y3200460D01*
X770260Y3196060D01*
X767200Y3191220D01*
X764760Y3186060D01*
X763000Y3180620D01*
X761919Y3175000D01*
X761560Y3169300D01*
X761919Y3163580D01*
X763000Y3157980D01*
X764760Y3152540D01*
X767200Y3147360D01*
X770260Y3142540D01*
X773900Y3138120D01*
X778060Y3134220D01*
X782700Y3130860D01*
X787700Y3128100D01*
X793020Y3126000D01*
X798560Y3124580D01*
G37*
G36*
X886880Y3128560D02*
G01*
X886880Y3149080D01*
X866380Y3149080D01*
X867200Y3147360D01*
X870260Y3142540D01*
X873900Y3138120D01*
X878060Y3134220D01*
X882700Y3130860D01*
G37*
G36*
X927300Y3128560D02*
G01*
X931480Y3130860D01*
X936100Y3134220D01*
X940280Y3138120D01*
X943920Y3142540D01*
X946979Y3147360D01*
X947780Y3149080D01*
X927300Y3149080D01*
G37*
G36*
X2244100Y3138880D02*
G01*
X2250140Y3139260D01*
X2256080Y3140340D01*
X2261860Y3142140D01*
X2267380Y3144620D01*
X2272560Y3147760D01*
X2277320Y3151480D01*
X2281600Y3155760D01*
X2285320Y3160520D01*
X2288460Y3165700D01*
X2290940Y3171220D01*
X2292740Y3176980D01*
X2293820Y3182940D01*
X2294180Y3188980D01*
X2293820Y3195020D01*
X2292740Y3200960D01*
X2290940Y3206740D01*
X2288460Y3212260D01*
X2285320Y3217440D01*
X2281600Y3222200D01*
X2277320Y3226480D01*
X2272560Y3230200D01*
X2267380Y3233340D01*
X2261860Y3235820D01*
X2256080Y3237620D01*
X2250140Y3238700D01*
X2244100Y3239080D01*
X2238060Y3238700D01*
X2232100Y3237620D01*
X2226340Y3235820D01*
X2220820Y3233340D01*
X2215640Y3230200D01*
X2210880Y3226480D01*
X2206600Y3222200D01*
X2202880Y3217440D01*
X2199740Y3212260D01*
X2197260Y3206740D01*
X2195460Y3200960D01*
X2194360Y3195020D01*
X2194000Y3188980D01*
X2194360Y3182940D01*
X2195460Y3176980D01*
X2197260Y3171220D01*
X2199740Y3165700D01*
X2202880Y3160520D01*
X2206600Y3155760D01*
X2210880Y3151480D01*
X2215640Y3147760D01*
X2220820Y3144620D01*
X2226340Y3142140D01*
X2232100Y3140340D01*
X2238060Y3139260D01*
G37*
G36*
X1220480Y3139160D02*
G01*
X1226120Y3139520D01*
X1231680Y3140580D01*
X1237080Y3142320D01*
X1242200Y3144740D01*
X1246980Y3147780D01*
X1251340Y3151380D01*
X1255220Y3155520D01*
X1258540Y3160100D01*
X1261280Y3165059D01*
X1263360Y3170320D01*
X1264760Y3175800D01*
X1265480Y3181420D01*
X1265480Y3187080D01*
X1264760Y3192700D01*
X1263360Y3198180D01*
X1261280Y3203460D01*
X1258540Y3208420D01*
X1255220Y3213000D01*
X1251340Y3217120D01*
X1246980Y3220740D01*
X1242200Y3223759D01*
X1237080Y3226180D01*
X1231680Y3227919D01*
X1226120Y3228980D01*
X1220480Y3229340D01*
X1214820Y3228980D01*
X1209260Y3227919D01*
X1203880Y3226180D01*
X1198740Y3223759D01*
X1193960Y3220740D01*
X1189600Y3217120D01*
X1185720Y3213000D01*
X1182400Y3208420D01*
X1179680Y3203460D01*
X1177580Y3198180D01*
X1176180Y3192700D01*
X1175460Y3187080D01*
X1175460Y3181420D01*
X1176180Y3175800D01*
X1177580Y3170320D01*
X1179680Y3165059D01*
X1182400Y3160100D01*
X1185720Y3155520D01*
X1189600Y3151380D01*
X1193960Y3147780D01*
X1198740Y3144740D01*
X1203880Y3142320D01*
X1209260Y3140580D01*
X1214820Y3139520D01*
G37*
G36*
X1820480Y3139160D02*
G01*
X1826120Y3139520D01*
X1831680Y3140580D01*
X1837080Y3142320D01*
X1842200Y3144740D01*
X1846980Y3147780D01*
X1851339Y3151380D01*
X1855220Y3155520D01*
X1858540Y3160100D01*
X1861279Y3165059D01*
X1863360Y3170320D01*
X1864760Y3175800D01*
X1865480Y3181420D01*
X1865480Y3187080D01*
X1864760Y3192700D01*
X1863360Y3198180D01*
X1861279Y3203460D01*
X1858540Y3208420D01*
X1855220Y3213000D01*
X1851339Y3217120D01*
X1846980Y3220740D01*
X1842200Y3223759D01*
X1837080Y3226180D01*
X1831680Y3227919D01*
X1826120Y3228980D01*
X1820480Y3229340D01*
X1814820Y3228980D01*
X1809259Y3227919D01*
X1803880Y3226180D01*
X1798740Y3223759D01*
X1793959Y3220740D01*
X1789600Y3217120D01*
X1785720Y3213000D01*
X1782400Y3208420D01*
X1779680Y3203460D01*
X1777580Y3198180D01*
X1776180Y3192700D01*
X1775460Y3187080D01*
X1775460Y3181420D01*
X1776180Y3175800D01*
X1777580Y3170320D01*
X1779680Y3165059D01*
X1782400Y3160100D01*
X1785720Y3155520D01*
X1789600Y3151380D01*
X1793959Y3147780D01*
X1798740Y3144740D01*
X1803880Y3142320D01*
X1809259Y3140580D01*
X1814820Y3139520D01*
G37*
G36*
X927300Y3189500D02*
G01*
X947780Y3189500D01*
X946979Y3191220D01*
X943920Y3196060D01*
X940280Y3200460D01*
X936100Y3204380D01*
X931480Y3207740D01*
X927300Y3210020D01*
G37*
G36*
X866380Y3189500D02*
G01*
X886880Y3189500D01*
X886880Y3210020D01*
X882700Y3207740D01*
X878060Y3204380D01*
X873900Y3200460D01*
X870260Y3196060D01*
X867200Y3191220D01*
G37*
G36*
X1220480Y3239160D02*
G01*
X1226120Y3239520D01*
X1231680Y3240580D01*
X1237080Y3242320D01*
X1242200Y3244740D01*
X1246980Y3247780D01*
X1251340Y3251380D01*
X1255220Y3255520D01*
X1258540Y3260100D01*
X1261280Y3265059D01*
X1263360Y3270320D01*
X1264760Y3275800D01*
X1265480Y3281420D01*
X1265480Y3287080D01*
X1264760Y3292700D01*
X1263360Y3298180D01*
X1261280Y3303460D01*
X1258540Y3308420D01*
X1255220Y3313000D01*
X1251340Y3317120D01*
X1246980Y3320740D01*
X1242200Y3323759D01*
X1237080Y3326180D01*
X1231680Y3327919D01*
X1226120Y3328980D01*
X1220480Y3329340D01*
X1214820Y3328980D01*
X1209260Y3327919D01*
X1203880Y3326180D01*
X1198740Y3323759D01*
X1193960Y3320740D01*
X1189600Y3317120D01*
X1185720Y3313000D01*
X1182400Y3308420D01*
X1179680Y3303460D01*
X1177580Y3298180D01*
X1176180Y3292700D01*
X1175460Y3287080D01*
X1175460Y3281420D01*
X1176180Y3275800D01*
X1177580Y3270320D01*
X1179680Y3265059D01*
X1182400Y3260100D01*
X1185720Y3255520D01*
X1189600Y3251380D01*
X1193960Y3247780D01*
X1198740Y3244740D01*
X1203880Y3242320D01*
X1209260Y3240580D01*
X1214820Y3239520D01*
G37*
G36*
X1800480Y3243920D02*
G01*
X1800480Y3264260D01*
X1780120Y3264260D01*
X1782400Y3260100D01*
X1785720Y3255520D01*
X1789600Y3251380D01*
X1793959Y3247780D01*
X1798740Y3244740D01*
G37*
G36*
X1840480Y3243920D02*
G01*
X1842200Y3244740D01*
X1846980Y3247780D01*
X1851339Y3251380D01*
X1855220Y3255520D01*
X1858540Y3260100D01*
X1860840Y3264260D01*
X1840480Y3264260D01*
G37*
G36*
X1780120Y3304260D02*
G01*
X1800480Y3304260D01*
X1800480Y3324580D01*
X1798740Y3323759D01*
X1793959Y3320740D01*
X1789600Y3317120D01*
X1785720Y3313000D01*
X1782400Y3308420D01*
G37*
G36*
X1840480Y3304260D02*
G01*
X1860840Y3304260D01*
X1858540Y3308420D01*
X1855220Y3313000D01*
X1851339Y3317120D01*
X1846980Y3320740D01*
X1842200Y3323759D01*
X1840480Y3324580D01*
G37*
G36*
X1820480Y3339160D02*
G01*
X1826120Y3339520D01*
X1831680Y3340580D01*
X1837080Y3342320D01*
X1842200Y3344740D01*
X1846980Y3347780D01*
X1851339Y3351380D01*
X1855220Y3355520D01*
X1858540Y3360100D01*
X1861279Y3365059D01*
X1863360Y3370320D01*
X1864760Y3375800D01*
X1865480Y3381420D01*
X1865480Y3387080D01*
X1864760Y3392700D01*
X1863360Y3398180D01*
X1861279Y3403460D01*
X1858540Y3408420D01*
X1855220Y3413000D01*
X1851339Y3417120D01*
X1846980Y3420740D01*
X1842200Y3423759D01*
X1837080Y3426180D01*
X1831680Y3427919D01*
X1826120Y3428980D01*
X1820480Y3429340D01*
X1814820Y3428980D01*
X1809259Y3427919D01*
X1803880Y3426180D01*
X1798740Y3423759D01*
X1793959Y3420740D01*
X1789600Y3417120D01*
X1785720Y3413000D01*
X1782400Y3408420D01*
X1779680Y3403460D01*
X1777580Y3398180D01*
X1776180Y3392700D01*
X1775460Y3387080D01*
X1775460Y3381420D01*
X1776180Y3375800D01*
X1777580Y3370320D01*
X1779680Y3365059D01*
X1782400Y3360100D01*
X1785720Y3355520D01*
X1789600Y3351380D01*
X1793959Y3347780D01*
X1798740Y3344740D01*
X1803880Y3342320D01*
X1809259Y3340580D01*
X1814820Y3339520D01*
G37*
G36*
X1185700Y3339160D02*
G01*
X1255240Y3339160D01*
X1257720Y3339440D01*
X1259840Y3340179D01*
X1261760Y3341380D01*
X1263340Y3342980D01*
X1264560Y3344880D01*
X1265300Y3347020D01*
X1265580Y3349480D01*
X1265580Y3419020D01*
X1265300Y3421500D01*
X1264560Y3423620D01*
X1263340Y3425539D01*
X1261760Y3427120D01*
X1259840Y3428320D01*
X1257720Y3429080D01*
X1255240Y3429360D01*
X1185700Y3429360D01*
X1183240Y3429080D01*
X1181100Y3428320D01*
X1179200Y3427120D01*
X1177600Y3425539D01*
X1176400Y3423620D01*
X1175660Y3421500D01*
X1175380Y3419020D01*
X1175380Y3349480D01*
X1175660Y3347020D01*
X1176400Y3344880D01*
X1177600Y3342980D01*
X1179200Y3341380D01*
X1181100Y3340179D01*
X1183240Y3339440D01*
G37*
G36*
X582040Y3389060D02*
G01*
X587380Y3389600D01*
X592580Y3390840D01*
X597580Y3392760D01*
X602280Y3395340D01*
X606600Y3398519D01*
X610440Y3402240D01*
X613760Y3406440D01*
X616500Y3411060D01*
X618580Y3415980D01*
X620000Y3421160D01*
X620720Y3426460D01*
X620720Y3431820D01*
X620000Y3437120D01*
X618580Y3442280D01*
X616500Y3447220D01*
X613760Y3451820D01*
X610440Y3456019D01*
X606600Y3459760D01*
X602280Y3462919D01*
X597580Y3465500D01*
X592580Y3467420D01*
X587380Y3468660D01*
X582040Y3469200D01*
X576700Y3469020D01*
X571420Y3468140D01*
X566300Y3466540D01*
X561440Y3464300D01*
X556920Y3461420D01*
X552840Y3457960D01*
X549240Y3453980D01*
X546220Y3449560D01*
X543800Y3444780D01*
X542040Y3439720D01*
X540980Y3434480D01*
X540620Y3429140D01*
X540980Y3423800D01*
X542040Y3418540D01*
X543800Y3413480D01*
X546220Y3408700D01*
X549240Y3404280D01*
X552840Y3400320D01*
X556920Y3396860D01*
X561440Y3393980D01*
X566300Y3391720D01*
X571420Y3390140D01*
X576700Y3389240D01*
G37*

%LPD*%
D11*
X986225Y3429135D02*
G01*
X1074804Y3429135D01*
X1129921Y3484254D01*
X1342520Y3484254D01*
X1488190Y3338584D01*
X1488190Y3149607D01*
X1653544Y2984254D01*
X1820471Y2984254D01*
D13*
G01*
X980315Y2574807D03*
G01*
X980315Y2937006D03*
D14*
G01*
X669290Y2677166D03*
D15*
G01*
X669290Y2874016D03*
G36*
X671653Y3204726D02*
G01*
X742519Y3204726D01*
X742519Y3133859D01*
X671653Y3133859D01*
G37*
D13*
G01*
X807087Y3169292D03*
G01*
X907087Y3169292D03*
D17*
G01*
X986225Y3429135D03*
G01*
X580704Y3429135D03*
D18*
G01*
X2078741Y2476772D03*
D19*
G01*
X2078741Y2376772D03*
G01*
X2078741Y2276772D03*
G01*
X2078741Y2176772D03*
D18*
G01*
X2074804Y2996457D03*
D19*
G01*
X2074804Y2896457D03*
G01*
X2074804Y2796457D03*
G01*
X2074804Y2696457D03*
D20*
G01*
X1220473Y3384252D03*
D21*
G01*
X1220473Y3284252D03*
G01*
X1220473Y3184252D03*
G01*
X1220473Y3084252D03*
G01*
X1220473Y2984252D03*
G01*
X1220473Y2884252D03*
G01*
X1220473Y2784252D03*
G01*
X1220473Y2684252D03*
G01*
X1220473Y2584252D03*
G01*
X1220473Y2484252D03*
G01*
X1220473Y2384252D03*
G01*
X1220473Y2284252D03*
G01*
X1220473Y2184252D03*
G01*
X1220473Y2084252D03*
G01*
X1220473Y1984252D03*
G01*
X1820473Y3384252D03*
G01*
X1820473Y3284252D03*
G01*
X1820473Y3184252D03*
G01*
X1820473Y3084252D03*
G01*
X1820473Y2984252D03*
G01*
X1820473Y2884252D03*
G01*
X1820473Y2784252D03*
G01*
X1820473Y2684252D03*
G01*
X1820473Y2584252D03*
G01*
X1820473Y2484252D03*
G01*
X1820473Y2384252D03*
G01*
X1820473Y2284252D03*
G01*
X1820473Y2184252D03*
G01*
X1820473Y2084252D03*
G01*
X1820473Y1984252D03*
D17*
X764251Y2110237D02*
G01*
X842047Y2110237D01*
X988189Y2193391D02*
G01*
X988189Y2271185D01*
X744567Y2342518D02*
G01*
X861732Y2342518D01*
M02*
