G04 Layer: BottomSolderMaskLayer*
G04 EasyEDA v6.4.19.3, 2021-03-31T18:03:01+05:30*
G04 c08650e857294e3dbb17a6b3c2855350,e0f298e70ebc440d83774b4d482b81cc,10*
G04 Gerber Generator version 0.2*
G04 Scale: 100 percent, Rotated: No, Reflected: No *
G04 Dimensions in inches *
G04 leading zeros omitted , absolute positions ,3 integer and 6 decimal *
%FSLAX36Y36*%
%MOIN*%

%ADD27C,0.0680*%
%ADD28C,0.0789*%
%ADD30C,0.1025*%
%ADD33C,0.0749*%
%ADD35C,0.0780*%

%LPD*%
D27*
X764251Y2110237D02*
G01*
X842047Y2110237D01*
X988189Y2193391D02*
G01*
X988189Y2271185D01*
X744567Y2342518D02*
G01*
X861732Y2342518D01*
D28*
G01*
X980315Y2574807D03*
G01*
X980315Y2937006D03*
G36*
X618000Y2625900D02*
G01*
X618000Y2728400D01*
X720500Y2728400D01*
X720500Y2625900D01*
G37*
D30*
G01*
X669290Y2874016D03*
G36*
X667699Y3129899D02*
G01*
X667699Y3208699D01*
X746500Y3208699D01*
X746500Y3129899D01*
G37*
D28*
G01*
X807087Y3169292D03*
G01*
X907087Y3169292D03*
D27*
G01*
X986225Y3429135D03*
G01*
X580704Y3429135D03*
G36*
X2041300Y2439299D02*
G01*
X2041300Y2514200D01*
X2116199Y2514200D01*
X2116199Y2439299D01*
G37*
D33*
G01*
X2078741Y2376772D03*
G01*
X2078741Y2276772D03*
G01*
X2078741Y2176772D03*
G36*
X2037299Y2959000D02*
G01*
X2037299Y3033899D01*
X2112299Y3033899D01*
X2112299Y2959000D01*
G37*
G01*
X2074804Y2896457D03*
G01*
X2074804Y2796457D03*
G01*
X2074804Y2696457D03*
G36*
X1181499Y3345300D02*
G01*
X1181499Y3423299D01*
X1259499Y3423299D01*
X1259499Y3345300D01*
G37*
D35*
G01*
X1220473Y3284252D03*
G01*
X1220473Y3184252D03*
G01*
X1220473Y3084252D03*
G01*
X1220473Y2984252D03*
G01*
X1220473Y2884252D03*
G01*
X1220473Y2784252D03*
G01*
X1220473Y2684252D03*
G01*
X1220473Y2584252D03*
G01*
X1220473Y2484252D03*
G01*
X1220473Y2384252D03*
G01*
X1220473Y2284252D03*
G01*
X1220473Y2184252D03*
G01*
X1220473Y2084252D03*
G01*
X1220473Y1984252D03*
G01*
X1820473Y3384252D03*
G01*
X1820473Y3284252D03*
G01*
X1820473Y3184252D03*
G01*
X1820473Y3084252D03*
G01*
X1820473Y2984252D03*
G01*
X1820473Y2884252D03*
G01*
X1820473Y2784252D03*
G01*
X1820473Y2684252D03*
G01*
X1820473Y2584252D03*
G01*
X1820473Y2484252D03*
G01*
X1820473Y2384252D03*
G01*
X1820473Y2284252D03*
G01*
X1820473Y2184252D03*
G01*
X1820473Y2084252D03*
G01*
X1820473Y1984252D03*
M02*
