M48
INCH,LZ
;FILE_FORMAT=2:4
;TYPE=PLATED
;Layer: Drill PTH
;EasyEDA v6.4.19.3, 2021-03-31T18:03:01+05:30
;c08650e857294e3dbb17a6b3c2855350,e0f298e70ebc440d83774b4d482b81cc,10
;Gerber Generator version 0.2
;Holesize 1 = 0.0320 inch
T01C0.0320
;Holesize 2 = 0.0360 inch
T02C0.0360
;Holesize 3 = 0.0390 inch
T03C0.0390
;Holesize 4 = 0.0430 inch
T04C0.0430
;Holesize 5 = 0.0470 inch
T05C0.0470
;Holesize 6 = 0.0630 inch
T06C0.0630
%
G05
G90
T01
X008366Y021102G85X007697Y021102
X009882Y022657G85X009882Y021988
X008563Y023425G85X007500Y023425
T02
X012205Y033843
X012205Y032843
X012205Y031843
X012205Y030843
X012205Y029843
X012205Y028843
X012205Y027843
X012205Y026843
X012205Y025843
X012205Y024843
X012205Y023843
X012205Y022843
X012205Y021843
X012205Y020843
X012205Y019843
X018205Y033843
X018205Y032843
X018205Y031843
X018205Y030843
X018205Y029843
X018205Y028843
X018205Y027843
X018205Y026843
X018205Y025843
X018205Y024843
X018205Y023843
X018205Y022843
X018205Y021843
X018205Y020843
X018205Y019843
T03
X009803Y025748
X009803Y029370
X009862Y034291
X005807Y034291
T04
X020787Y024768
X020787Y023768
X020787Y022768
X020787Y021768
X020748Y029965
X020748Y028965
X020748Y027965
X020748Y026965
T05
X007071Y031693
X008071Y031693
X009071Y031693
T06
X006693Y026772G85X006693Y026772
X006693Y028740G85X006693Y028740
M30
